<svg height="22" viewBox="0 0 27 22" width="27" xmlns="http://www.w3.org/2000/svg"><path d="m26.636 2.563c-.998.442-2.056.732-3.14.86a5.48 5.48 0 0 0 2.404-3.023 10.941 10.941 0 0 1 -3.47 1.327 5.464 5.464 0 0 0 -9.312 4.983 15.51 15.51 0 0 1 -11.265-5.708 5.44 5.44 0 0 0 -.74 2.747 5.463 5.463 0 0 0 2.431 4.548 5.436 5.436 0 0 1 -2.474-.684v.069a5.468 5.468 0 0 0 4.384 5.358 5.475 5.475 0 0 1 -2.467.093 5.47 5.47 0 0 0 5.104 3.796 10.964 10.964 0 0 1 -8.09 2.26 15.464 15.464 0 0 0 8.377 2.455c10.052 0 15.548-8.327 15.548-15.548 0-.237-.005-.473-.016-.708a11.096 11.096 0 0 0 2.726-2.824z"/></svg>