<svg height="22" width="27" xmlns="http://www.w3.org/2000/svg"><path d="M26.636 2.563c-.998.442-2.056.732-3.14.86A5.48 5.48 0 0025.9.4a10.941 10.941 0 01-3.47 1.327 5.464 5.464 0 00-9.312 4.983A15.51 15.51 0 011.853 1.002a5.44 5.44 0 00-.74 2.747 5.463 5.463 0 002.431 4.548 5.436 5.436 0 01-2.474-.684v.069a5.468 5.468 0 004.384 5.358 5.475 5.475 0 01-2.467.093 5.47 5.47 0 005.104 3.796 10.964 10.964 0 01-8.09 2.26 15.464 15.464 0 008.377 2.455c10.052 0 15.548-8.327 15.548-15.548 0-.237-.005-.473-.016-.708a11.096 11.096 0 002.726-2.824z"/></svg>